<?xml version="1.0" encoding="utf-8"?>
<!-- Generator: Adobe Illustrator 22.1.0, SVG Export Plug-In . SVG Version: 6.00 Build 0)  -->
<svg version="1.1" id="Layer_1" xmlns="http://www.w3.org/2000/svg" xmlns:xlink="http://www.w3.org/1999/xlink" x="0px" y="0px"
	 viewBox="0 0 145.1 145.1" style="enable-background:new 0 0 145.1 145.1;" xml:space="preserve">
<style type="text/css">
	.st0{fill:#C64B52;}
</style>
<path class="st0" d="M145.1,114.8c0,0-6.6-46.9-60.7-74.7c-3.2-4.6-4.6-11.4-4.4-17c0.2-7.8,11.2-13.9,9-19.5
	c-1.9-4.8-5.8-4.1-10.7-2.2c0,0-4.1,1.8-7.8,2c-3.6-0.2-7.7-2-7.7-2C58-0.5,54-1.1,52.1,3.6c-2.2,5.6,8.8,11.7,9,19.5
	c0.2,5.6-1.2,12.4-4.4,17c0,0-44.8,22.7-56.8,83.8c0,0,1.4,5.3,10.3,5.7c9.2-32.5,25.9-55.1,25.9-55.1c-11.3,17.2-20.6,50.5-22,55.6
	c0.8,2.1,4.3,9.7,14.9,9c3-0.2,6.1-0.6,8.5-0.5c4.5-34.6,16.6-57.2,16.6-57.2c-5.8,16.5-11.1,54.3-11.8,60.1
	c2.2,2.6,7.3,5.8,14.2,1.9c8.1-4.6,7.2-5.1,9.8-2.1c0.7,0.8,1.5,1.8,2.3,2.6l3-63.1c0,4.4,2.6,54.8,3.1,64.5
	c0.6-0.3,1.2-0.6,1.8-1.1c5.3-3.9,4.5-5.3,10.2-3.2c6,2.3,12.9,1.7,13.9-3.2c0,0,0.2,0,0.5,0.1c-0.2-8.8-1.5-32.7-9.8-57.6
	c0,0,14.6,28.5,14.8,58.5c5.2,0.7,12.5,1.1,14.4-2.1c2.3-3.7-1.8-5.9-1.8-5.9s8.5,0.2,13.3-2.9c-1.9-9.9-8.2-38-22.2-55.4
	c0,0,19,23.2,25.4,50.1c0-0.2,0-0.4,0-0.6C135.3,121.8,145.8,120.8,145.1,114.8z"/>
</svg>
